{
  "accessors": [
    {
      "bufferView": 2,
      "componentType": 5126,
      "count": 6982,
      "max": [
        0.51778411865234375,
        0.39658409357070923,
        1.6934298276901245
      ],
      "min": [
        0,
        0,
        0
      ],
      "type": "VEC3"
    },
    {
      "bufferView": 2,
      "byteOffset": 83784,
      "componentType": 5126,
      "count": 6982,
      "max": [
        0.99986571073532104,
        0.99983972311019897,
        0.9941483736038208
      ],
      "min": [
        -0.99989879131317139,
        -0.99992650747299194,
        -0.99991858005523682
      ],
      "type": "VEC3"
    },
    {
      "bufferView": 3,
      "componentType": 5126,
      "count": 6982,
      "max": [
        0.9998508095741272,
        0.99995994567871094,
        0.99999922513961792,
        1
      ],
      "min": [
        -0.99984437227249146,
        -0.99991917610168457,
        -0.99982577562332153,
        -1
      ],
      "type": "VEC4"
    },
    {
      "bufferView": 1,
      "componentType": 5126,
      "count": 6982,
      "max": [
        0.99558597803115845,
        0.99880498647689819
      ],
      "min": [
        0.0021359999664127827,
        0.0039060120470821857
      ],
      "type": "VEC2"
    },
    {
      "bufferView": 0,
      "componentType": 5125,
      "count": 30000,
      "max": [
        6981
      ],
      "min": [
        0
      ],
      "type": "SCALAR"
    }
  ],
  "asset": {
    "extras": {
      "author": "Dosch Design (https://sketchfab.com/doschdesign)",
      "license": "CC-BY-4.0 (http://creativecommons.org/licenses/by/4.0/)",
      "source": "https://sketchfab.com/models/831baa82d6d6429cbdb6acc1a9bebe2b",
      "title": "D3D- Lo Poly People Vol1 - Sample"
    },
    "generator": "Sketchfab-3.18.6",
    "version": "2.0"
  },
  "bufferViews": [
    {
      "buffer": 0,
      "byteLength": 120000,
      "byteOffset": 0,
      "name": "floatBufferViews",
      "target": 34963
    },
    {
      "buffer": 0,
      "byteLength": 55856,
      "byteOffset": 120000,
      "byteStride": 8,
      "name": "floatBufferViews",
      "target": 34962
    },
    {
      "buffer": 0,
      "byteLength": 167568,
      "byteOffset": 175856,
      "byteStride": 12,
      "name": "floatBufferViews",
      "target": 34962
    },
    {
      "buffer": 0,
      "byteLength": 111712,
      "byteOffset": 343424,
      "byteStride": 16,
      "name": "floatBufferViews",
      "target": 34962
    }
  ],
  "buffers": [
    {
      "byteLength": 455136,
      "uri": "scene.bin"
    }
  ],
  "images": [
    {
      "uri": "textures/D3D-P-LOW-001_baseColor.jpeg"
    }
  ],
  "materials": [
    {
      "doubleSided": true,
      "emissiveFactor": [
        0,
        0,
        0
      ],
      "name": "D3D-P-LOW-001",
      "pbrMetallicRoughness": {
        "baseColorFactor": [
          1,
          1,
          1,
          1
        ],
        "baseColorTexture": {
          "index": 0,
          "texCoord": 0
        },
        "metallicFactor": 0,
        "roughnessFactor": 0.59999999999999998
      }
    }
  ],
  "meshes": [
    {
      "name": "D3D-P-LOW-001",
      "primitives": [
        {
          "attributes": {
            "NORMAL": 1,
            "POSITION": 0,
            "TANGENT": 2,
            "TEXCOORD_0": 3
          },
          "indices": 4,
          "material": 0,
          "mode": 4
        }
      ]
    }
  ],
  "nodes": [
    {
      "children": [
        1
      ],
      "name": "RootNode (gltf orientation matrix)",
      "rotation": [
        -0.70710678118654746,
        -0,
        -0,
        0.70710678118654757
      ]
    },
    {
      "children": [
        2
      ],
      "name": "RootNode (model correction matrix)"
    },
    {
      "children": [
        3
      ],
      "matrix": [
        1,
        0,
        0,
        0,
        0,
        1,
        0,
        0,
        0,
        0,
        1,
        0,
        -0.22507500648498535,
        -0.1553930938243866,
        -0.00035176999517716467,
        1
      ],
      "name": "D3D-P-LOW-001.DAE.cleaner.materialmerger.gles"
    },
    {
      "children": [
        4,
        6
      ],
      "name": "Collada visual scene group"
    },
    {
      "children": [
        5
      ],
      "name": "EnvironmentAmbientLight"
    },
    {
      "name": "EnvironmentAmbientLight"
    },
    {
      "children": [
        7
      ],
      "name": "D3D-P-LOW-001"
    },
    {
      "mesh": 0,
      "name": "D3D-P-LOW-001"
    }
  ],
  "samplers": [
    {
      "magFilter": 9729,
      "minFilter": 9987,
      "wrapS": 10497,
      "wrapT": 10497
    }
  ],
  "scene": 0,
  "scenes": [
    {
      "name": "OSG_Scene",
      "nodes": [
        0
      ]
    }
  ],
  "textures": [
    {
      "sampler": 0,
      "source": 0
    }
  ]
}

