{
  "accessors": [
    {
      "bufferView": 2,
      "componentType": 5126,
      "count": 65532,
      "max": [
        0.45577561855316162,
        0.17550808191299438,
        0.7257809042930603
      ],
      "min": [
        -0.48991495370864868,
        -0.24202793836593628,
        -0.52930659055709839
      ],
      "type": "VEC3"
    },
    {
      "bufferView": 2,
      "byteOffset": 786384,
      "componentType": 5126,
      "count": 65532,
      "max": [
        0.99999207258224487,
        0.99999552965164185,
        0.99997341632843018
      ],
      "min": [
        -0.99998176097869873,
        -0.99997395277023315,
        -0.99986821413040161
      ],
      "type": "VEC3"
    },
    {
      "bufferView": 3,
      "componentType": 5126,
      "count": 65532,
      "max": [
        0.99849128723144531,
        0.99996566772460938,
        0.9999813437461853,
        1
      ],
      "min": [
        -0.99993234872817993,
        -0.99995380640029907,
        -0.99999958276748657,
        -1
      ],
      "type": "VEC4"
    },
    {
      "bufferView": 1,
      "componentType": 5126,
      "count": 65532,
      "max": [
        0.96722787618637085,
        0.99613457918167114
      ],
      "min": [
        0.0024997221771627665,
        0.018292903900146484
      ],
      "type": "VEC2"
    },
    {
      "bufferView": 0,
      "componentType": 5125,
      "count": 349812,
      "max": [
        65531
      ],
      "min": [
        0
      ],
      "type": "SCALAR"
    },
    {
      "bufferView": 2,
      "byteOffset": 1572768,
      "componentType": 5126,
      "count": 50907,
      "max": [
        0.45426005125045776,
        0.27192109823226929,
        0.52502351999282837
      ],
      "min": [
        -0.48991495370864868,
        -0.2013593316078186,
        -0.98693138360977173
      ],
      "type": "VEC3"
    },
    {
      "bufferView": 2,
      "byteOffset": 2183652,
      "componentType": 5126,
      "count": 50907,
      "max": [
        0.99999046325683594,
        0.99999552965164185,
        0.99991434812545776
      ],
      "min": [
        -0.99999767541885376,
        -0.99996829032897949,
        -0.99997293949127197
      ],
      "type": "VEC3"
    },
    {
      "bufferView": 3,
      "byteOffset": 1048512,
      "componentType": 5126,
      "count": 50907,
      "max": [
        0.99997109174728394,
        0.99997895956039429,
        0.99992305040359497,
        1
      ],
      "min": [
        -0.99993234872817993,
        -0.99995380640029907,
        -0.99997842311859131,
        -1
      ],
      "type": "VEC4"
    },
    {
      "bufferView": 1,
      "byteOffset": 524256,
      "componentType": 5126,
      "count": 50907,
      "max": [
        0.97561091184616089,
        0.99750030040740967
      ],
      "min": [
        0.0024997221771627665,
        0.002499699592590332
      ],
      "type": "VEC2"
    },
    {
      "bufferView": 0,
      "byteOffset": 1399248,
      "componentType": 5125,
      "count": 250554,
      "max": [
        50906
      ],
      "min": [
        0
      ],
      "type": "SCALAR"
    }
  ],
  "asset": {
    "extras": {
      "author": "litonavarro (https://sketchfab.com/litonavarro)",
      "license": "CC-BY-4.0 (http://creativecommons.org/licenses/by/4.0/)",
      "source": "https://sketchfab.com/3d-models/paco-00e8836e2a0a44f2871247813a6e7af9",
      "title": "Paco"
    },
    "generator": "Sketchfab-7.0.0",
    "version": "2.0"
  },
  "bufferViews": [
    {
      "buffer": 0,
      "byteLength": 2401464,
      "byteOffset": 0,
      "name": "floatBufferViews",
      "target": 34963
    },
    {
      "buffer": 0,
      "byteLength": 931512,
      "byteOffset": 2401464,
      "byteStride": 8,
      "name": "floatBufferViews",
      "target": 34962
    },
    {
      "buffer": 0,
      "byteLength": 2794536,
      "byteOffset": 3332976,
      "byteStride": 12,
      "name": "floatBufferViews",
      "target": 34962
    },
    {
      "buffer": 0,
      "byteLength": 1863024,
      "byteOffset": 6127512,
      "byteStride": 16,
      "name": "floatBufferViews",
      "target": 34962
    }
  ],
  "buffers": [
    {
      "byteLength": 7990536,
      "uri": "scene.bin"
    }
  ],
  "images": [
    {
      "uri": "textures/material_0_baseColor.jpeg"
    }
  ],
  "materials": [
    {
      "doubleSided": true,
      "emissiveFactor": [
        0,
        0,
        0
      ],
      "name": "material_0",
      "pbrMetallicRoughness": {
        "baseColorFactor": [
          1,
          1,
          1,
          1
        ],
        "baseColorTexture": {
          "index": 0,
          "texCoord": 0
        },
        "metallicFactor": 0,
        "roughnessFactor": 1
      }
    }
  ],
  "meshes": [
    {
      "primitives": [
        {
          "attributes": {
            "NORMAL": 1,
            "POSITION": 0,
            "TANGENT": 2,
            "TEXCOORD_0": 3
          },
          "indices": 4,
          "material": 0,
          "mode": 4
        }
      ]
    },
    {
      "primitives": [
        {
          "attributes": {
            "NORMAL": 6,
            "POSITION": 5,
            "TANGENT": 7,
            "TEXCOORD_0": 8
          },
          "indices": 9,
          "material": 0,
          "mode": 4
        }
      ]
    }
  ],
  "nodes": [
    {
      "children": [
        1
      ],
      "name": "RootNode (gltf orientation matrix)",
      "rotation": [
        -0.70710678118654746,
        -0,
        -0,
        0.70710678118654757
      ]
    },
    {
      "children": [
        2
      ],
      "name": "RootNode (model correction matrix)"
    },
    {
      "children": [
        3,
        4
      ],
      "name": "model_mesh.obj.cleaner.materialmerger.gles"
    },
    {
      "mesh": 0,
      "name": ""
    },
    {
      "mesh": 1,
      "name": ""
    }
  ],
  "samplers": [
    {
      "magFilter": 9729,
      "minFilter": 9987,
      "wrapS": 10497,
      "wrapT": 10497
    }
  ],
  "scene": 0,
  "scenes": [
    {
      "name": "OSG_Scene",
      "nodes": [
        0
      ]
    }
  ],
  "textures": [
    {
      "sampler": 0,
      "source": 0
    }
  ]
}

