{
  "accessors": [
    {
      "bufferView": 2,
      "componentType": 5126,
      "count": 65532,
      "max": [
        35.760601043701172,
        23.265151977539062,
        86.372177124023438
      ],
      "min": [
        -34.080410003662109,
        -28.778347015380859,
        -58.870487213134766
      ],
      "type": "VEC3"
    },
    {
      "bufferView": 2,
      "byteOffset": 786384,
      "componentType": 5126,
      "count": 65532,
      "max": [
        0.99999034404754639,
        0.99997490644454956,
        0.99976712465286255
      ],
      "min": [
        -0.99998354911804199,
        -0.99999576807022095,
        -0.99995690584182739
      ],
      "type": "VEC3"
    },
    {
      "bufferView": 3,
      "componentType": 5126,
      "count": 65532,
      "max": [
        0.9999462366104126,
        0.99980789422988892,
        0.99999481439590454,
        1
      ],
      "min": [
        -0.9999767541885376,
        -0.99994415044784546,
        -0.99993914365768433,
        -1
      ],
      "type": "VEC4"
    },
    {
      "bufferView": 1,
      "componentType": 5126,
      "count": 65532,
      "max": [
        0.99804002046585083,
        0.99067997932434082
      ],
      "min": [
        0.0019499999471008778,
        0.0019499999471008778
      ],
      "type": "VEC2"
    },
    {
      "bufferView": 0,
      "componentType": 5125,
      "count": 308649,
      "max": [
        65531
      ],
      "min": [
        0
      ],
      "type": "SCALAR"
    },
    {
      "bufferView": 2,
      "byteOffset": 1572768,
      "componentType": 5126,
      "count": 65532,
      "max": [
        35.131561279296875,
        28.611057281494141,
        105.45075988769531
      ],
      "min": [
        -35.316627502441406,
        -28.778347015380859,
        -104.52754211425781
      ],
      "type": "VEC3"
    },
    {
      "bufferView": 2,
      "byteOffset": 2359152,
      "componentType": 5126,
      "count": 65532,
      "max": [
        1,
        0.99995249509811401,
        0.99995714426040649
      ],
      "min": [
        -1,
        -0.99999809265136719,
        -1
      ],
      "type": "VEC3"
    },
    {
      "bufferView": 3,
      "byteOffset": 1048512,
      "componentType": 5126,
      "count": 65532,
      "max": [
        0.99999409914016724,
        0.9999958872795105,
        0.99997669458389282,
        1
      ],
      "min": [
        -0.99995821714401245,
        -0.99994421005249023,
        -0.99997460842132568,
        -1
      ],
      "type": "VEC4"
    },
    {
      "bufferView": 1,
      "byteOffset": 524256,
      "componentType": 5126,
      "count": 65532,
      "max": [
        0.99017000198364258,
        0.97001999616622925
      ],
      "min": [
        0.018680000677704811,
        0.016920000314712524
      ],
      "type": "VEC2"
    },
    {
      "bufferView": 0,
      "byteOffset": 1234596,
      "componentType": 5125,
      "count": 304998,
      "max": [
        65531
      ],
      "min": [
        0
      ],
      "type": "SCALAR"
    },
    {
      "bufferView": 2,
      "byteOffset": 3145536,
      "componentType": 5126,
      "count": 65532,
      "max": [
        35.269149780273438,
        28.423229217529297,
        105.47261047363281
      ],
      "min": [
        -34.999717712402344,
        -26.84722900390625,
        -104.52738952636719
      ],
      "type": "VEC3"
    },
    {
      "bufferView": 2,
      "byteOffset": 3931920,
      "componentType": 5126,
      "count": 65532,
      "max": [
        1,
        1,
        0.99970924854278564
      ],
      "min": [
        -0.99997353553771973,
        -0.99999451637268066,
        -1
      ],
      "type": "VEC3"
    },
    {
      "bufferView": 3,
      "byteOffset": 2097024,
      "componentType": 5126,
      "count": 65532,
      "max": [
        0.99999868869781494,
        0.9999089241027832,
        0.99997466802597046,
        1
      ],
      "min": [
        -0.99991291761398315,
        -0.99995124340057373,
        -0.99998784065246582,
        -1
      ],
      "type": "VEC4"
    },
    {
      "bufferView": 1,
      "byteOffset": 1048512,
      "componentType": 5126,
      "count": 65532,
      "max": [
        0.9823799729347229,
        0.98167997598648071
      ],
      "min": [
        0.014000000432133675,
        0.0082499999552965164
      ],
      "type": "VEC2"
    },
    {
      "bufferView": 0,
      "byteOffset": 2454588,
      "componentType": 5125,
      "count": 304584,
      "max": [
        65531
      ],
      "min": [
        0
      ],
      "type": "SCALAR"
    },
    {
      "bufferView": 2,
      "byteOffset": 4718304,
      "componentType": 5126,
      "count": 65532,
      "max": [
        35.798309326171875,
        28.434513092041016,
        105.19126892089844
      ],
      "min": [
        -35.159088134765625,
        -28.575313568115234,
        -104.50422668457031
      ],
      "type": "VEC3"
    },
    {
      "bufferView": 2,
      "byteOffset": 5504688,
      "componentType": 5126,
      "count": 65532,
      "max": [
        0.99997621774673462,
        0.99999666213989258,
        0.9999651312828064
      ],
      "min": [
        -0.99999749660491943,
        -0.99999922513961792,
        -0.99997174739837646
      ],
      "type": "VEC3"
    },
    {
      "bufferView": 3,
      "byteOffset": 3145536,
      "componentType": 5126,
      "count": 65532,
      "max": [
        0.99999409914016724,
        0.99991220235824585,
        0.99998807907104492,
        1
      ],
      "min": [
        -0.99996733665466309,
        -0.99997413158416748,
        -0.99997937679290771,
        -1
      ],
      "type": "VEC4"
    },
    {
      "bufferView": 1,
      "byteOffset": 1572768,
      "componentType": 5126,
      "count": 65532,
      "max": [
        0.96176999807357788,
        0.96950000524520874
      ],
      "min": [
        0.021900000050663948,
        0.022369999438524246
      ],
      "type": "VEC2"
    },
    {
      "bufferView": 0,
      "byteOffset": 3672924,
      "componentType": 5125,
      "count": 301020,
      "max": [
        65531
      ],
      "min": [
        0
      ],
      "type": "SCALAR"
    },
    {
      "bufferView": 2,
      "byteOffset": 6291072,
      "componentType": 5126,
      "count": 65532,
      "max": [
        35.713840484619141,
        28.215473175048828,
        105.47261047363281
      ],
      "min": [
        -35.181571960449219,
        -28.766063690185547,
        -104.52754211425781
      ],
      "type": "VEC3"
    },
    {
      "bufferView": 2,
      "byteOffset": 7077456,
      "componentType": 5126,
      "count": 65532,
      "max": [
        0.99998736381530762,
        1,
        0.99986046552658081
      ],
      "min": [
        -0.99998277425765991,
        -0.99999922513961792,
        -1
      ],
      "type": "VEC3"
    },
    {
      "bufferView": 3,
      "byteOffset": 4194048,
      "componentType": 5126,
      "count": 65532,
      "max": [
        0.99994903802871704,
        0.9999958872795105,
        0.99997669458389282,
        1
      ],
      "min": [
        -0.9999767541885376,
        -0.99995046854019165,
        -0.99985736608505249,
        -1
      ],
      "type": "VEC4"
    },
    {
      "bufferView": 1,
      "byteOffset": 2097024,
      "componentType": 5126,
      "count": 65532,
      "max": [
        0.98403000831604004,
        0.98720002174377441
      ],
      "min": [
        0.0049899998120963573,
        0.0095199998468160629
      ],
      "type": "VEC2"
    },
    {
      "bufferView": 0,
      "byteOffset": 4877004,
      "componentType": 5125,
      "count": 238101,
      "max": [
        65531
      ],
      "min": [
        0
      ],
      "type": "SCALAR"
    },
    {
      "bufferView": 2,
      "byteOffset": 7863840,
      "componentType": 5126,
      "count": 26482,
      "max": [
        35.649600982666016,
        28.582557678222656,
        105.38249206542969
      ],
      "min": [
        -35.282752990722656,
        -28.682834625244141,
        -104.52732849121094
      ],
      "type": "VEC3"
    },
    {
      "bufferView": 2,
      "byteOffset": 8181624,
      "componentType": 5126,
      "count": 26482,
      "max": [
        0.99990552663803101,
        0.99994224309921265,
        0.99995714426040649
      ],
      "min": [
        -0.99999290704727173,
        -0.99995136260986328,
        -0.99999988079071045
      ],
      "type": "VEC3"
    },
    {
      "bufferView": 3,
      "byteOffset": 5242560,
      "componentType": 5126,
      "count": 26482,
      "max": [
        0.99995529651641846,
        0.999961256980896,
        0.99995779991149902,
        1
      ],
      "min": [
        -0.99995821714401245,
        -0.99980854988098145,
        -0.99998784065246582,
        -1
      ],
      "type": "VEC4"
    },
    {
      "bufferView": 1,
      "byteOffset": 2621280,
      "componentType": 5126,
      "count": 26482,
      "max": [
        0.99418002367019653,
        0.99097001552581787
      ],
      "min": [
        0.0044800001196563244,
        0.011330000124871731
      ],
      "type": "VEC2"
    },
    {
      "bufferView": 0,
      "byteOffset": 5829408,
      "componentType": 5125,
      "count": 42642,
      "max": [
        26481
      ],
      "min": [
        0
      ],
      "type": "SCALAR"
    }
  ],
  "asset": {
    "extras": {
      "author": "dc3dmodeling (https://sketchfab.com/dc3dmodeling)",
      "license": "CC-BY-4.0 (http://creativecommons.org/licenses/by/4.0/)",
      "source": "https://sketchfab.com/3d-models/model6-0fba924014f84bf780f5c9a3e670c2fd",
      "title": "Model6"
    },
    "generator": "Sketchfab-6.35.0",
    "version": "2.0"
  },
  "bufferViews": [
    {
      "buffer": 0,
      "byteLength": 5999976,
      "byteOffset": 0,
      "name": "floatBufferViews",
      "target": 34963
    },
    {
      "buffer": 0,
      "byteLength": 2833136,
      "byteOffset": 5999976,
      "byteStride": 8,
      "name": "floatBufferViews",
      "target": 34962
    },
    {
      "buffer": 0,
      "byteLength": 8499408,
      "byteOffset": 8833112,
      "byteStride": 12,
      "name": "floatBufferViews",
      "target": 34962
    },
    {
      "buffer": 0,
      "byteLength": 5666272,
      "byteOffset": 17332520,
      "byteStride": 16,
      "name": "floatBufferViews",
      "target": 34962
    }
  ],
  "buffers": [
    {
      "byteLength": 22998792,
      "uri": "scene.bin"
    }
  ],
  "extensionsUsed": [
    "KHR_materials_unlit"
  ],
  "images": [
    {
      "uri": "textures/defaultMat_baseColor.jpeg"
    }
  ],
  "materials": [
    {
      "doubleSided": true,
      "emissiveFactor": [
        0,
        0,
        0
      ],
      "extensions": {
        "KHR_materials_unlit": {}
      },
      "name": "defaultMat",
      "pbrMetallicRoughness": {
        "baseColorFactor": [
          1,
          1,
          1,
          1
        ],
        "baseColorTexture": {
          "index": 0,
          "texCoord": 0
        },
        "metallicFactor": 0,
        "roughnessFactor": 1
      }
    }
  ],
  "meshes": [
    {
      "primitives": [
        {
          "attributes": {
            "NORMAL": 1,
            "POSITION": 0,
            "TANGENT": 2,
            "TEXCOORD_0": 3
          },
          "indices": 4,
          "material": 0,
          "mode": 4
        }
      ]
    },
    {
      "primitives": [
        {
          "attributes": {
            "NORMAL": 6,
            "POSITION": 5,
            "TANGENT": 7,
            "TEXCOORD_0": 8
          },
          "indices": 9,
          "material": 0,
          "mode": 4
        }
      ]
    },
    {
      "primitives": [
        {
          "attributes": {
            "NORMAL": 11,
            "POSITION": 10,
            "TANGENT": 12,
            "TEXCOORD_0": 13
          },
          "indices": 14,
          "material": 0,
          "mode": 4
        }
      ]
    },
    {
      "primitives": [
        {
          "attributes": {
            "NORMAL": 16,
            "POSITION": 15,
            "TANGENT": 17,
            "TEXCOORD_0": 18
          },
          "indices": 19,
          "material": 0,
          "mode": 4
        }
      ]
    },
    {
      "primitives": [
        {
          "attributes": {
            "NORMAL": 21,
            "POSITION": 20,
            "TANGENT": 22,
            "TEXCOORD_0": 23
          },
          "indices": 24,
          "material": 0,
          "mode": 4
        }
      ]
    },
    {
      "primitives": [
        {
          "attributes": {
            "NORMAL": 26,
            "POSITION": 25,
            "TANGENT": 27,
            "TEXCOORD_0": 28
          },
          "indices": 29,
          "material": 0,
          "mode": 4
        }
      ]
    }
  ],
  "nodes": [
    {
      "children": [
        1
      ],
      "name": "RootNode (gltf orientation matrix)",
      "rotation": [
        -0.70710678118654746,
        -0,
        -0,
        0.70710678118654757
      ]
    },
    {
      "children": [
        2
      ],
      "name": "RootNode (model correction matrix)"
    },
    {
      "children": [
        3,
        4,
        5,
        6,
        7,
        8
      ],
      "name": "model6.obj.cleaner.materialmerger.gles"
    },
    {
      "mesh": 0,
      "name": ""
    },
    {
      "mesh": 1,
      "name": ""
    },
    {
      "mesh": 2,
      "name": ""
    },
    {
      "mesh": 3,
      "name": ""
    },
    {
      "mesh": 4,
      "name": ""
    },
    {
      "mesh": 5,
      "name": ""
    }
  ],
  "samplers": [
    {
      "magFilter": 9729,
      "minFilter": 9987,
      "wrapS": 10497,
      "wrapT": 10497
    }
  ],
  "scene": 0,
  "scenes": [
    {
      "name": "OSG_Scene",
      "nodes": [
        0
      ]
    }
  ],
  "textures": [
    {
      "sampler": 0,
      "source": 0
    }
  ]
}

