{
  "accessors": [
    {
      "bufferView": 2,
      "componentType": 5126,
      "count": 2906,
      "max": [
        0.49754095077514648,
        0.50120383501052856,
        0.73235535621643066
      ],
      "min": [
        -0.49754178524017334,
        -0.50120371580123901,
        0.68235534429550171
      ],
      "type": "VEC3"
    },
    {
      "bufferView": 2,
      "byteOffset": 34872,
      "componentType": 5126,
      "count": 2906,
      "max": [
        0.99274414777755737,
        0.99107080698013306,
        1
      ],
      "min": [
        -0.99274051189422607,
        -0.99159073829650879,
        -1
      ],
      "type": "VEC3"
    },
    {
      "bufferView": 3,
      "componentType": 5126,
      "count": 2906,
      "max": [
        1,
        0.95804351568222046,
        0.99806201457977295,
        1
      ],
      "min": [
        -1,
        -0.93460792303085327,
        -0.99660152196884155,
        -1
      ],
      "type": "VEC4"
    },
    {
      "bufferView": 1,
      "componentType": 5126,
      "count": 2906,
      "max": [
        0.99512302875518799,
        0.89760518074035645
      ],
      "min": [
        0.0048770555295050144,
        0.0048770555295050144
      ],
      "type": "VEC2"
    },
    {
      "bufferView": 0,
      "componentType": 5125,
      "count": 13392,
      "max": [
        2905
      ],
      "min": [
        0
      ],
      "type": "SCALAR"
    },
    {
      "bufferView": 2,
      "byteOffset": 69744,
      "componentType": 5126,
      "count": 840,
      "max": [
        0.44539433717727661,
        0.37097546458244324,
        0.68199527263641357
      ],
      "min": [
        -0.44516626000404358,
        -0.37097546458244324,
        -0.0029430985450744629
      ],
      "type": "VEC3"
    },
    {
      "bufferView": 2,
      "byteOffset": 79824,
      "componentType": 5126,
      "count": 840,
      "max": [
        0.99332094192504883,
        0.99332714080810547,
        0.23188701272010803
      ],
      "min": [
        -0.99332094192504883,
        -0.99332714080810547,
        -0.98949164152145386
      ],
      "type": "VEC3"
    },
    {
      "bufferView": 3,
      "byteOffset": 46496,
      "componentType": 5126,
      "count": 840,
      "max": [
        0.99681544303894043,
        0.99584662914276123,
        1,
        1
      ],
      "min": [
        -0.99681550264358521,
        -0.99584662914276123,
        -1,
        -1
      ],
      "type": "VEC4"
    },
    {
      "bufferView": 1,
      "byteOffset": 23248,
      "componentType": 5126,
      "count": 840,
      "max": [
        0.99091792106628418,
        0.99551278352737427
      ],
      "min": [
        0.0044871983118355274,
        0.0044871983118355274
      ],
      "type": "VEC2"
    },
    {
      "bufferView": 0,
      "byteOffset": 53568,
      "componentType": 5125,
      "count": 3024,
      "max": [
        839
      ],
      "min": [
        0
      ],
      "type": "SCALAR"
    }
  ],
  "asset": {
    "extras": {
      "author": "James.Moore (https://sketchfab.com/James.Moore)",
      "license": "CC-BY-4.0 (http://creativecommons.org/licenses/by/4.0/)",
      "source": "https://sketchfab.com/models/54102629bec34474aca394044e18a231",
      "title": "Round Table"
    },
    "generator": "Sketchfab-3.19.6",
    "version": "2.0"
  },
  "bufferViews": [
    {
      "buffer": 0,
      "byteLength": 65664,
      "byteOffset": 0,
      "name": "floatBufferViews",
      "target": 34963
    },
    {
      "buffer": 0,
      "byteLength": 29968,
      "byteOffset": 65664,
      "byteStride": 8,
      "name": "floatBufferViews",
      "target": 34962
    },
    {
      "buffer": 0,
      "byteLength": 89904,
      "byteOffset": 95632,
      "byteStride": 12,
      "name": "floatBufferViews",
      "target": 34962
    },
    {
      "buffer": 0,
      "byteLength": 59936,
      "byteOffset": 185536,
      "byteStride": 16,
      "name": "floatBufferViews",
      "target": 34962
    }
  ],
  "buffers": [
    {
      "byteLength": 245472,
      "uri": "scene.bin"
    }
  ],
  "images": [
    {
      "uri": "textures/LegsWood_metallicRoughness.png"
    },
    {
      "uri": "textures/LegsWood_normal.png"
    },
    {
      "uri": "textures/LegsWood_baseColor.png"
    },
    {
      "uri": "textures/TopWood_metallicRoughness.png"
    },
    {
      "uri": "textures/TopWood_normal.png"
    },
    {
      "uri": "textures/TopWood_baseColor.png"
    }
  ],
  "materials": [
    {
      "doubleSided": true,
      "emissiveFactor": [
        0,
        0,
        0
      ],
      "name": "TopWood",
      "normalTexture": {
        "index": 4,
        "scale": 1,
        "texCoord": 0
      },
      "occlusionTexture": {
        "index": 3,
        "strength": 1,
        "texCoord": 0
      },
      "pbrMetallicRoughness": {
        "baseColorFactor": [
          1,
          1,
          1,
          1
        ],
        "baseColorTexture": {
          "index": 5,
          "texCoord": 0
        },
        "metallicFactor": 0,
        "metallicRoughnessTexture": {
          "index": 3,
          "texCoord": 0
        },
        "roughnessFactor": 1
      }
    },
    {
      "doubleSided": true,
      "emissiveFactor": [
        0,
        0,
        0
      ],
      "name": "LegsWood",
      "normalTexture": {
        "index": 1,
        "scale": 1,
        "texCoord": 0
      },
      "occlusionTexture": {
        "index": 0,
        "strength": 1,
        "texCoord": 0
      },
      "pbrMetallicRoughness": {
        "baseColorFactor": [
          1,
          1,
          1,
          1
        ],
        "baseColorTexture": {
          "index": 2,
          "texCoord": 0
        },
        "metallicFactor": 0,
        "metallicRoughnessTexture": {
          "index": 0,
          "texCoord": 0
        },
        "roughnessFactor": 1
      }
    }
  ],
  "meshes": [
    {
      "name": "RoundTableA_TopWood_0",
      "primitives": [
        {
          "attributes": {
            "NORMAL": 1,
            "POSITION": 0,
            "TANGENT": 2,
            "TEXCOORD_0": 3
          },
          "indices": 4,
          "material": 0,
          "mode": 4
        }
      ]
    },
    {
      "name": "RoundTableA_LegsWood_0",
      "primitives": [
        {
          "attributes": {
            "NORMAL": 6,
            "POSITION": 5,
            "TANGENT": 7,
            "TEXCOORD_0": 8
          },
          "indices": 9,
          "material": 1,
          "mode": 4
        }
      ]
    }
  ],
  "nodes": [
    {
      "children": [
        1
      ],
      "name": "RootNode (gltf orientation matrix)",
      "rotation": [
        -0.70710678118654746,
        -0,
        -0,
        0.70710678118654757
      ]
    },
    {
      "children": [
        2
      ],
      "name": "RootNode (model correction matrix)"
    },
    {
      "children": [
        3
      ],
      "matrix": [
        1,
        0,
        0,
        0,
        0,
        0,
        1,
        0,
        0,
        -1,
        0,
        0,
        0,
        0,
        0,
        1
      ],
      "name": "cbdd09d92957475fa77486f7f5d23e89.fbx"
    },
    {
      "children": [
        4
      ],
      "name": "RootNode"
    },
    {
      "children": [
        5,
        6
      ],
      "matrix": [
        100,
        0,
        0,
        0,
        0,
        -1.6292067939183141e-05,
        -99.999999999998678,
        0,
        0,
        99.999999999998678,
        -1.6292067939183141e-05,
        0,
        4.246830940246582e-05,
        0,
        0,
        1
      ],
      "name": "RoundTableA"
    },
    {
      "mesh": 0,
      "name": "RoundTableA_TopWood_0"
    },
    {
      "mesh": 1,
      "name": "RoundTableA_LegsWood_0"
    }
  ],
  "samplers": [
    {
      "magFilter": 9729,
      "minFilter": 9987,
      "wrapS": 10497,
      "wrapT": 10497
    }
  ],
  "scene": 0,
  "scenes": [
    {
      "name": "OSG_Scene",
      "nodes": [
        0
      ]
    }
  ],
  "textures": [
    {
      "sampler": 0,
      "source": 0
    },
    {
      "sampler": 0,
      "source": 1
    },
    {
      "sampler": 0,
      "source": 2
    },
    {
      "sampler": 0,
      "source": 3
    },
    {
      "sampler": 0,
      "source": 4
    },
    {
      "sampler": 0,
      "source": 5
    }
  ]
}

