{
  "accessors": [
    {
      "bufferView": 2,
      "componentType": 5126,
      "count": 65532,
      "max": [
        0.30405107140541077,
        0.20942914485931396,
        0.72940337657928467
      ],
      "min": [
        -0.13694754242897034,
        -0.20148575305938721,
        -0.93642723560333252
      ],
      "type": "VEC3"
    },
    {
      "bufferView": 2,
      "byteOffset": 786384,
      "componentType": 5126,
      "count": 65532,
      "max": [
        0.99998295307159424,
        0.99995934963226318,
        0.99987417459487915
      ],
      "min": [
        -0.99998879432678223,
        -0.99999523162841797,
        -0.9999549388885498
      ],
      "type": "VEC3"
    },
    {
      "bufferView": 3,
      "componentType": 5126,
      "count": 65532,
      "max": [
        0.99985277652740479,
        0.99999934434890747,
        0.99995887279510498,
        1
      ],
      "min": [
        -0.99998831748962402,
        -0.99999594688415527,
        -0.99991875886917114,
        -1
      ],
      "type": "VEC4"
    },
    {
      "bufferView": 1,
      "componentType": 5126,
      "count": 65532,
      "max": [
        0.93868464231491089,
        0.99795520305633545
      ],
      "min": [
        0.0020448197610676289,
        0.059640645980834961
      ],
      "type": "VEC2"
    },
    {
      "bufferView": 0,
      "componentType": 5125,
      "count": 345321,
      "max": [
        65531
      ],
      "min": [
        0
      ],
      "type": "SCALAR"
    },
    {
      "bufferView": 2,
      "byteOffset": 1572768,
      "componentType": 5126,
      "count": 51224,
      "max": [
        0.29030546545982361,
        0.21502804756164551,
        0.70011520385742188
      ],
      "min": [
        -0.24991244077682495,
        -0.19979298114776611,
        -0.9446723461151123
      ],
      "type": "VEC3"
    },
    {
      "bufferView": 2,
      "byteOffset": 2187456,
      "componentType": 5126,
      "count": 51224,
      "max": [
        0.99998807907104492,
        0.99997937679290771,
        0.99987274408340454
      ],
      "min": [
        -0.99998259544372559,
        -0.99998730421066284,
        -0.99995326995849609
      ],
      "type": "VEC3"
    },
    {
      "bufferView": 3,
      "byteOffset": 1048512,
      "componentType": 5126,
      "count": 51224,
      "max": [
        0.99997055530548096,
        0.99999696016311646,
        0.99999701976776123,
        -1
      ],
      "min": [
        -0.99993085861206055,
        -0.99995869398117065,
        -0.99998706579208374,
        -1
      ],
      "type": "VEC4"
    },
    {
      "bufferView": 1,
      "byteOffset": 524256,
      "componentType": 5126,
      "count": 51224,
      "max": [
        0.96986562013626099,
        0.99795520305633545
      ],
      "min": [
        0.0020448197610676289,
        0.0020448565483093262
      ],
      "type": "VEC2"
    },
    {
      "bufferView": 0,
      "byteOffset": 1381284,
      "componentType": 5125,
      "count": 257433,
      "max": [
        51223
      ],
      "min": [
        0
      ],
      "type": "SCALAR"
    }
  ],
  "asset": {
    "extras": {
      "author": "CODAME (https://sketchfab.com/codame)",
      "license": "CC-BY-4.0 (http://creativecommons.org/licenses/by/4.0/)",
      "source": "https://sketchfab.com/models/edda4458bc784a3aabcc8dd34c603a7d",
      "title": "Gwen"
    },
    "generator": "Sketchfab-3.18.6",
    "version": "2.0"
  },
  "bufferViews": [
    {
      "buffer": 0,
      "byteLength": 2411016,
      "byteOffset": 0,
      "name": "floatBufferViews",
      "target": 34963
    },
    {
      "buffer": 0,
      "byteLength": 934048,
      "byteOffset": 2411016,
      "byteStride": 8,
      "name": "floatBufferViews",
      "target": 34962
    },
    {
      "buffer": 0,
      "byteLength": 2802144,
      "byteOffset": 3345064,
      "byteStride": 12,
      "name": "floatBufferViews",
      "target": 34962
    },
    {
      "buffer": 0,
      "byteLength": 1868096,
      "byteOffset": 6147208,
      "byteStride": 16,
      "name": "floatBufferViews",
      "target": 34962
    }
  ],
  "buffers": [
    {
      "byteLength": 8015304,
      "uri": "scene.bin"
    }
  ],
  "extensionsUsed": [
    "KHR_materials_unlit"
  ],
  "images": [
    {
      "uri": "textures/material_0_baseColor.jpeg"
    }
  ],
  "materials": [
    {
      "doubleSided": true,
      "emissiveFactor": [
        0,
        0,
        0
      ],
      "extensions": {
        "KHR_materials_unlit": {}
      },
      "name": "material_0",
      "pbrMetallicRoughness": {
        "baseColorFactor": [
          1,
          1,
          1,
          1
        ],
        "baseColorTexture": {
          "index": 0,
          "texCoord": 0
        },
        "metallicFactor": 0,
        "roughnessFactor": 1
      }
    }
  ],
  "meshes": [
    {
      "primitives": [
        {
          "attributes": {
            "NORMAL": 1,
            "POSITION": 0,
            "TANGENT": 2,
            "TEXCOORD_0": 3
          },
          "indices": 4,
          "material": 0,
          "mode": 4
        }
      ]
    },
    {
      "primitives": [
        {
          "attributes": {
            "NORMAL": 6,
            "POSITION": 5,
            "TANGENT": 7,
            "TEXCOORD_0": 8
          },
          "indices": 9,
          "material": 0,
          "mode": 4
        }
      ]
    }
  ],
  "nodes": [
    {
      "children": [
        1
      ],
      "name": "RootNode (gltf orientation matrix)",
      "rotation": [
        -0.70710678118654746,
        -0,
        -0,
        0.70710678118654757
      ]
    },
    {
      "children": [
        2
      ],
      "name": "RootNode (model correction matrix)"
    },
    {
      "children": [
        3,
        4
      ],
      "name": "model_mesh.obj.cleaner.gles"
    },
    {
      "mesh": 0,
      "name": ""
    },
    {
      "mesh": 1,
      "name": ""
    }
  ],
  "samplers": [
    {
      "magFilter": 9729,
      "minFilter": 9987,
      "wrapS": 10497,
      "wrapT": 10497
    }
  ],
  "scene": 0,
  "scenes": [
    {
      "name": "OSG_Scene",
      "nodes": [
        0
      ]
    }
  ],
  "textures": [
    {
      "sampler": 0,
      "source": 0
    }
  ]
}

