{
  "accessors": [
    {
      "bufferView": 2,
      "componentType": 5126,
      "count": 65533,
      "max": [
        189.743896484375,
        163.09629821777344,
        1317.739501953125
      ],
      "min": [
        -234.25630187988281,
        -603.697021484375,
        -1.2375999689102173
      ],
      "type": "VEC3"
    },
    {
      "bufferView": 2,
      "byteOffset": 786396,
      "componentType": 5126,
      "count": 65533,
      "max": [
        0.99998414516448975,
        0.99999904632568359,
        0.99997329711914062
      ],
      "min": [
        -0.99997055530548096,
        -0.9995911717414856,
        -0.99999988079071045
      ],
      "type": "VEC3"
    },
    {
      "bufferView": 3,
      "componentType": 5126,
      "count": 65533,
      "max": [
        0.99991488456726074,
        0.99999123811721802,
        0.99992239475250244,
        1
      ],
      "min": [
        -0.9999200701713562,
        -0.9998517632484436,
        -0.99977737665176392,
        -1
      ],
      "type": "VEC4"
    },
    {
      "bufferView": 1,
      "componentType": 5126,
      "count": 65533,
      "max": [
        0.99800002574920654,
        0.98269999027252197
      ],
      "min": [
        0.0019000000320374966,
        0.002899999963119626
      ],
      "type": "VEC2"
    },
    {
      "bufferView": 0,
      "componentType": 5125,
      "count": 65553,
      "max": [
        65532
      ],
      "min": [
        0
      ],
      "type": "SCALAR"
    },
    {
      "bufferView": 2,
      "byteOffset": 1572792,
      "componentType": 5126,
      "count": 65532,
      "max": [
        189.743896484375,
        163.09629821777344,
        1317.739501953125
      ],
      "min": [
        -234.25630187988281,
        -603.697021484375,
        -1.3610999584197998
      ],
      "type": "VEC3"
    },
    {
      "bufferView": 2,
      "byteOffset": 2359176,
      "componentType": 5126,
      "count": 65532,
      "max": [
        0.99999392032623291,
        0.99997067451477051,
        0.99988436698913574
      ],
      "min": [
        -0.99999094009399414,
        -0.99998986721038818,
        -0.9999997615814209
      ],
      "type": "VEC3"
    },
    {
      "bufferView": 3,
      "byteOffset": 1048528,
      "componentType": 5126,
      "count": 65532,
      "max": [
        0.99952220916748047,
        0.99990975856781006,
        0.99975544214248657,
        1
      ],
      "min": [
        -0.99952507019042969,
        -0.9997859001159668,
        -0.99964141845703125,
        1
      ],
      "type": "VEC4"
    },
    {
      "bufferView": 1,
      "byteOffset": 524264,
      "componentType": 5126,
      "count": 65532,
      "max": [
        0.99790000915527344,
        0.98549997806549072
      ],
      "min": [
        0.0038999998942017555,
        0.0031000000890344381
      ],
      "type": "VEC2"
    },
    {
      "bufferView": 0,
      "byteOffset": 262212,
      "componentType": 5125,
      "count": 65544,
      "max": [
        65531
      ],
      "min": [
        0
      ],
      "type": "SCALAR"
    },
    {
      "bufferView": 2,
      "byteOffset": 3145560,
      "componentType": 5126,
      "count": 65532,
      "max": [
        189.73800659179688,
        162.89669799804688,
        1317.739501953125
      ],
      "min": [
        -234.25630187988281,
        -603.697021484375,
        -1.3610999584197998
      ],
      "type": "VEC3"
    },
    {
      "bufferView": 2,
      "byteOffset": 3931944,
      "componentType": 5126,
      "count": 65532,
      "max": [
        0.99997818470001221,
        0.99997174739837646,
        0.99998509883880615
      ],
      "min": [
        -0.99994790554046631,
        -0.9998365044593811,
        -0.9999924898147583
      ],
      "type": "VEC3"
    },
    {
      "bufferView": 3,
      "byteOffset": 2097040,
      "componentType": 5126,
      "count": 65532,
      "max": [
        0.99977213144302368,
        0.99987584352493286,
        0.99971538782119751,
        1
      ],
      "min": [
        -0.99970120191574097,
        -0.99995255470275879,
        -0.99959301948547363,
        1
      ],
      "type": "VEC4"
    },
    {
      "bufferView": 1,
      "byteOffset": 1048520,
      "componentType": 5126,
      "count": 65532,
      "max": [
        0.99800002574920654,
        0.98619997501373291
      ],
      "min": [
        0.0043000001460313797,
        0.0020000000949949026
      ],
      "type": "VEC2"
    },
    {
      "bufferView": 0,
      "byteOffset": 524388,
      "componentType": 5125,
      "count": 65544,
      "max": [
        65531
      ],
      "min": [
        0
      ],
      "type": "SCALAR"
    },
    {
      "bufferView": 2,
      "byteOffset": 4718328,
      "componentType": 5126,
      "count": 65532,
      "max": [
        189.743896484375,
        163.09629821777344,
        1317.739501953125
      ],
      "min": [
        -234.16850280761719,
        -603.697021484375,
        -1.2375999689102173
      ],
      "type": "VEC3"
    },
    {
      "bufferView": 2,
      "byteOffset": 5504712,
      "componentType": 5126,
      "count": 65532,
      "max": [
        0.99998593330383301,
        0.99985456466674805,
        0.99995338916778564
      ],
      "min": [
        -0.99996483325958252,
        -0.99987101554870605,
        -0.99999892711639404
      ],
      "type": "VEC3"
    },
    {
      "bufferView": 3,
      "byteOffset": 3145552,
      "componentType": 5126,
      "count": 65532,
      "max": [
        0.99971222877502441,
        0.99987995624542236,
        0.99996322393417358,
        1
      ],
      "min": [
        -0.99936068058013916,
        -0.99962818622589111,
        -0.99808675050735474,
        -1
      ],
      "type": "VEC4"
    },
    {
      "bufferView": 1,
      "byteOffset": 1572776,
      "componentType": 5126,
      "count": 65532,
      "max": [
        0.99800002574920654,
        0.98580002784729004
      ],
      "min": [
        0.0031000000890344381,
        0.004999999888241291
      ],
      "type": "VEC2"
    },
    {
      "bufferView": 0,
      "byteOffset": 786564,
      "componentType": 5125,
      "count": 65538,
      "max": [
        65531
      ],
      "min": [
        0
      ],
      "type": "SCALAR"
    },
    {
      "bufferView": 2,
      "byteOffset": 6291096,
      "componentType": 5126,
      "count": 47152,
      "max": [
        189.73800659179688,
        163.09629821777344,
        1317.739501953125
      ],
      "min": [
        -233.610595703125,
        -603.697021484375,
        -1.3610999584197998
      ],
      "type": "VEC3"
    },
    {
      "bufferView": 2,
      "byteOffset": 6856920,
      "componentType": 5126,
      "count": 47152,
      "max": [
        0.99994075298309326,
        0.99985432624816895,
        0.99996960163116455
      ],
      "min": [
        -0.99995183944702148,
        -0.99997520446777344,
        -0.99998486042022705
      ],
      "type": "VEC3"
    },
    {
      "bufferView": 3,
      "byteOffset": 4194064,
      "componentType": 5126,
      "count": 47152,
      "max": [
        0.99998265504837036,
        0.99971991777420044,
        0.99999159574508667,
        1
      ],
      "min": [
        -0.99957412481307983,
        -0.99991446733474731,
        -0.99838507175445557,
        -1
      ],
      "type": "VEC4"
    },
    {
      "bufferView": 1,
      "byteOffset": 2097032,
      "componentType": 5126,
      "count": 47152,
      "max": [
        0.99550002813339233,
        0.98710000514984131
      ],
      "min": [
        0.0019000000320374966,
        0.004999999888241291
      ],
      "type": "VEC2"
    },
    {
      "bufferView": 0,
      "byteOffset": 1048716,
      "componentType": 5125,
      "count": 47154,
      "max": [
        47151
      ],
      "min": [
        0
      ],
      "type": "SCALAR"
    }
  ],
  "asset": {
    "extras": {
      "author": "AtelierBrown (https://sketchfab.com/endonoriko)",
      "license": "CC-BY-4.0 (http://creativecommons.org/licenses/by/4.0/)",
      "source": "https://sketchfab.com/3d-models/free-091-aya-obj-1628ca49728a4d998f7bfed3b2f6d540",
      "title": "Free 091 Aya OBJ"
    },
    "generator": "Sketchfab-6.97.0",
    "version": "2.0"
  },
  "bufferViews": [
    {
      "buffer": 0,
      "byteLength": 1237332,
      "byteOffset": 0,
      "name": "floatBufferViews",
      "target": 34963
    },
    {
      "buffer": 0,
      "byteLength": 2474248,
      "byteOffset": 1237332,
      "byteStride": 8,
      "name": "floatBufferViews",
      "target": 34962
    },
    {
      "buffer": 0,
      "byteLength": 7422744,
      "byteOffset": 3711580,
      "byteStride": 12,
      "name": "floatBufferViews",
      "target": 34962
    },
    {
      "buffer": 0,
      "byteLength": 4948496,
      "byteOffset": 11134324,
      "byteStride": 16,
      "name": "floatBufferViews",
      "target": 34962
    }
  ],
  "buffers": [
    {
      "byteLength": 16082820,
      "uri": "scene.bin"
    }
  ],
  "images": [
    {
      "uri": "textures/091_W_Aya_2K_01_baseColor.jpeg"
    }
  ],
  "materials": [
    {
      "doubleSided": true,
      "emissiveFactor": [
        0,
        0,
        0
      ],
      "emissiveTexture": {
        "index": 0,
        "texCoord": 0
      },
      "name": "091_W_Aya_2K_01",
      "pbrMetallicRoughness": {
        "baseColorFactor": [
          1,
          1,
          1,
          1
        ],
        "baseColorTexture": {
          "index": 0,
          "texCoord": 0
        },
        "metallicFactor": 0,
        "roughnessFactor": 1
      }
    }
  ],
  "meshes": [
    {
      "primitives": [
        {
          "attributes": {
            "NORMAL": 1,
            "POSITION": 0,
            "TANGENT": 2,
            "TEXCOORD_0": 3
          },
          "indices": 4,
          "material": 0,
          "mode": 4
        }
      ]
    },
    {
      "primitives": [
        {
          "attributes": {
            "NORMAL": 6,
            "POSITION": 5,
            "TANGENT": 7,
            "TEXCOORD_0": 8
          },
          "indices": 9,
          "material": 0,
          "mode": 4
        }
      ]
    },
    {
      "primitives": [
        {
          "attributes": {
            "NORMAL": 11,
            "POSITION": 10,
            "TANGENT": 12,
            "TEXCOORD_0": 13
          },
          "indices": 14,
          "material": 0,
          "mode": 4
        }
      ]
    },
    {
      "primitives": [
        {
          "attributes": {
            "NORMAL": 16,
            "POSITION": 15,
            "TANGENT": 17,
            "TEXCOORD_0": 18
          },
          "indices": 19,
          "material": 0,
          "mode": 4
        }
      ]
    },
    {
      "primitives": [
        {
          "attributes": {
            "NORMAL": 21,
            "POSITION": 20,
            "TANGENT": 22,
            "TEXCOORD_0": 23
          },
          "indices": 24,
          "material": 0,
          "mode": 4
        }
      ]
    }
  ],
  "nodes": [
    {
      "children": [
        1
      ],
      "name": "RootNode (gltf orientation matrix)",
      "rotation": [
        -0.70710678118654746,
        -0,
        -0,
        0.70710678118654757
      ]
    },
    {
      "children": [
        2
      ],
      "name": "RootNode (model correction matrix)"
    },
    {
      "children": [
        3,
        4,
        5,
        6,
        7
      ],
      "name": "091_W_Aya_100K.obj.cleaner.materialmerger.gles"
    },
    {
      "mesh": 0,
      "name": ""
    },
    {
      "mesh": 1,
      "name": ""
    },
    {
      "mesh": 2,
      "name": ""
    },
    {
      "mesh": 3,
      "name": ""
    },
    {
      "mesh": 4,
      "name": ""
    }
  ],
  "samplers": [
    {
      "magFilter": 9729,
      "minFilter": 9987,
      "wrapS": 10497,
      "wrapT": 10497
    }
  ],
  "scene": 0,
  "scenes": [
    {
      "name": "OSG_Scene",
      "nodes": [
        0
      ]
    }
  ],
  "textures": [
    {
      "sampler": 0,
      "source": 0
    }
  ]
}

